<?xml version="1.0" encoding="utf-8"?><svg viewBox="0 0 61 71" xmlns="http://www.w3.org/2000/svg" xmlns:xlink="http://www.w3.org/1999/xlink"><style>:root>svg{display:none}:root>svg:target{display:block}</style><svg viewBox="0 0 61 71" id="find-more" xmlns="http://www.w3.org/2000/svg"><defs><clipPath id="aa"><path fill="#fff" d="M0 69.603V1.397h61v68.206zm57.982-18.346V19.743L30.488 3.985 2.994 19.743v31.514l27.494 15.758z"/></clipPath></defs><path fill="none" stroke="#ff8b00" stroke-miterlimit="50" stroke-width="3" d="M30.488 67.015v0L2.994 51.257v0-31.514 0L30.488 3.985v0l27.494 15.758v31.514z" clip-path="url(#aa)"/></svg><svg viewBox="0 0 15 18" id="slider-dot" xmlns="http://www.w3.org/2000/svg"><defs><clipPath id="ba"><path fill="#fff" d="M7.227 17.352l-7.284-4.205v-8.41L7.227.53l7.283 4.205v8.41z"/></clipPath></defs><path fill="none" stroke="#fff" stroke-miterlimit="50" stroke-width="4" d="M7.227 17.352v0l-7.284-4.205v0-8.41 0L7.227.53v0l7.283 4.205v8.41z" clip-path="url(#ba)"/></svg><svg viewBox="0 0 19 22" id="slider-dot-active" xmlns="http://www.w3.org/2000/svg"><path fill="#ff8b00" d="M9.51 22.01L.007 16.508V5.503L9.51 0l9.503 5.503v11.005z"/></svg><svg viewBox="0 0 15 18" id="slider-dot-hov" xmlns="http://www.w3.org/2000/svg"><defs><clipPath id="da"><path fill="#fff" d="M7.227 17.352l-7.284-4.205v-8.41L7.227.53l7.283 4.205v8.41z"/></clipPath></defs><path fill="none" stroke="#ff8b00" stroke-miterlimit="50" stroke-width="4" d="M7.227 17.352v0l-7.284-4.205v0-8.41 0L7.227.53v0l7.283 4.205v8.41z" clip-path="url(#da)"/></svg><svg viewBox="0 0 9 10" id="title-icon" xmlns="http://www.w3.org/2000/svg"><path fill="#ff8b00" d="M4.49 9.991l-4.5-2.494V2.508L4.49.014l4.5 2.494v4.989z"/></svg></svg>